<svg xmlns="http://www.w3.org/2000/svg" class="" width="12" height="12" viewBox="0 0 18 19">
      <g id="book">
    <path class="icon-shadow" opacity="0.3" d="M9,.5a9,9,0,1,0,9,9A9,9,0,0,0,9,.5Z"></path>
    <path class="icon-background" fill="#a88865" d="M9,0a9,9,0,1,0,9,9A9,9,0,0,0,9,0Z"></path>
    <g>
      <path class="icon-component-shadow" opacity="0.3" isolation="isolate" d="M8.45,5.9c-1-.75-2.51-1.09-4.83-1.09H2.54v8.71H3.62a8.16,8.16,0,0,1,4.83,1.17Z"></path>
      <path class="icon-component-shadow" opacity="0.3" isolation="isolate" d="M9.54,14.69a8.14,8.14,0,0,1,4.84-1.17h1.08V4.81H14.38c-2.31,0-3.81.34-4.84,1.09Z"></path>
      <path class="icon-component" fill="#fff" d="M8.45,5.4c-1-.75-2.51-1.09-4.83-1.09H3V13h.58a8.09,8.09,0,0,1,4.83,1.17Z"></path>
      <path class="icon-component" fill="#fff" d="M9.54,14.19A8.14,8.14,0,0,1,14.38,13H15V4.31h-.58c-2.31,0-3.81.34-4.84,1.09Z"></path>
    </g>
  </g>
    </svg>