<svg xmlns="http://www.w3.org/2000/svg" class="" width="12" height="12" viewBox="0 0 18 19">
      <g id="great_find">
    <path class="icon-shadow" opacity="0.3" d="M9,.5a9,9,0,1,0,9,9A9,9,0,0,0,9,.5Z"></path>
    <path class="icon-background" fill="#5c8bb0" d="M9,0a9,9,0,1,0,9,9A9,9,0,0,0,9,0Z"></path>
    <g>
      <g class="icon-component-shadow" opacity="0.2">
        <path d="M10.32,14.6a.27.27,0,0,1,0,.13.44.44,0,0,1-.08.11l-.11.08-.13,0H8l-.13,0-.11-.08a.41.41,0,0,1-.08-.24V12.7a.27.27,0,0,1,0-.13.36.36,0,0,1,.07-.1.39.39,0,0,1,.1-.08l.13,0h2a.31.31,0,0,1,.24.1.39.39,0,0,1,.08.1.51.51,0,0,1,0,.13Zm-.12-3.93a.17.17,0,0,1,0,.12.41.41,0,0,1-.07.11.4.4,0,0,1-.23.08H8.1a.31.31,0,0,1-.34-.31L7.61,3.9a.36.36,0,0,1,.09-.24.23.23,0,0,1,.11-.08.27.27,0,0,1,.13,0h2.11a.32.32,0,0,1,.25.1.36.36,0,0,1,.09.24Z"></path>
      </g>
      <path class="icon-component" fill="#fff" d="M10.32,14.1a.27.27,0,0,1,0,.13.44.44,0,0,1-.08.11l-.11.08-.13,0H8l-.13,0-.11-.08a.41.41,0,0,1-.08-.24V12.2a.27.27,0,0,1,0-.13.36.36,0,0,1,.07-.1.39.39,0,0,1,.1-.08l.13,0h2a.31.31,0,0,1,.24.1.39.39,0,0,1,.08.1.51.51,0,0,1,0,.13Zm-.12-3.93a.17.17,0,0,1,0,.12.41.41,0,0,1-.07.11.4.4,0,0,1-.23.08H8.1a.31.31,0,0,1-.34-.31L7.61,3.4a.36.36,0,0,1,.09-.24.23.23,0,0,1,.11-.08.27.27,0,0,1,.13,0h2.11a.32.32,0,0,1,.25.1.36.36,0,0,1,.09.24Z"></path>
    </g>
  </g>
    </svg>